<svg id="SvgjsSvg1000" xmlns="http://www.w3.org/2000/svg" version="1.1" xmlns:xlink="http://www.w3.org/1999/xlink" xmlns:svgjs="http://svgjs.com/svgjs" width="98" height="48"><defs id="SvgjsDefs1001"></defs><path id="SvgjsPath1007" d="M363.088 52.6502C362.738 52.0066 362.18 51.4848 361.51800000000003 51.2211C360.88100000000003 50.9679 360.44500000000005 51.077 360.026 51.6201C358.899 53.0811 359.502 55.0332 360.228 56.5112C360.39229 56.84516 360.57837 57.16818 360.78105 57.482040000000005C360.69902 57.630810000000004 360.63421 57.790350000000004 360.59 57.95850000000001C359.945 60.39960000000001 359.215 62.93560000000001 357.97299999999996 65.1312C357.78399999999993 65.46430000000001 357.57399999999996 65.78250000000001 357.35099999999994 66.09140000000001C357.34847999999994 66.09518000000001 356.97953999999993 66.48165 356.9878499999999 66.48983000000001C356.9492699999999 66.52034000000002 356.89861999999994 66.55957000000001 356.8662299999999 66.58568000000001C356.8429599999999 66.59855000000002 356.8192199999999 66.61158 356.79975999999994 66.62247C356.71455999999995 66.65022 356.62019999999995 66.67873 356.7634099999999 66.64346C356.7630899999999 66.64366000000001 356.7627799999999 66.64385 356.7624799999999 66.64404C356.7052299999999 66.65911 356.68227999999993 66.66673 356.6741099999999 66.66998000000001C356.67716999999993 66.66691000000002 356.67373999999995 66.66124 356.61898999999994 66.66000000000001C355.93798999999996 66.6479 355.3049899999999 65.93350000000001 354.86098999999996 65.24300000000001C354.54655999999994 64.75474000000001 354.30026 64.22346 354.10000999999994 63.67242000000001C355.59358999999995 62.07466000000001 356.80623999999995 60.14198000000001 357.36598999999995 57.97950000000001C357.72099 56.61010000000001 357.94899 54.68150000000001 356.9199899999999 53.54270000000001C355.86898999999994 52.379700000000014 354.12398999999994 53.17720000000001 353.10198999999994 53.94810000000001C352.09298999999993 54.70810000000001 351.47698999999994 55.91070000000001 351.14298999999994 57.13140000000001C350.6140199999999 59.06907000000001 350.70825999999994 61.23705000000001 351.15270999999996 63.23528000000002C350.30799999999994 64.80194000000002 349.03686999999996 66.84733000000001 347.32399 67.14380000000001C346.44021999999995 67.29679000000002 345.90455 66.75008000000001 345.49242 66.00066000000001C346.30221 64.69828000000001 346.93028 63.25417000000001 347.51299 61.84360000000001C348.65899 59.07100000000001 349.52599 56.17240000000001 350.23099 53.24670000000001C350.64299 51.53570000000001 350.57899000000003 49.49880000000001 350.04299000000003 47.82820000000001C349.48599 46.09540000000001 347.74399000000005 44.51280000000001 345.98099 45.46870000000001C344.22699 46.418500000000016 343.31999 48.793300000000016 342.68099 50.61180000000001C341.96099 52.66110000000001 341.58599 54.79250000000001 341.53299 56.97270000000001C341.47285 59.45403000000001 341.83495 62.32074000000001 342.88793999999996 64.75002C342.84479999999996 64.81018 342.80116 64.86992000000001 342.75699 64.92920000000001C342.73048 64.96480000000001 342.7082 65.00198 342.68991 65.04053C342.62385 65.09995 342.57018 65.16837000000001 342.53199 65.2462C342.14299 66.0393 341.72599 66.8098 341.22199 67.5303C341.06125000000003 67.75988 340.88143 67.96458 340.68453 68.15807C340.43381 67.80398 340.278 67.35378 340.12999 66.9508C339.36899 64.8646 339.06499 62.3157 339.30499000000003 60.0959C339.42499000000004 58.9902 336.58299000000005 58.771 336.45899000000003 59.9142C336.34124 61.00499 336.33774000000005 62.23534 336.46634 63.46738C336.05902 63.88615 335.79069 64.38524 335.87999 64.8146C336.09799000000004 65.8556 336.07299 66.87 335.85999000000004 67.9111C335.79292000000004 68.23824 335.67679000000004 68.58703 335.52396000000005 68.87905C334.52368000000007 68.77346 333.63359 67.60613000000001 333.07999000000007 66.8417C332.5535100000001 66.11445 332.1450500000001 65.30021 331.8005100000001 64.46284C332.1996000000001 61.15532 332.18921000000006 57.76675 331.9639900000001 54.4472C331.8729900000001 53.092 331.7309900000001 51.732400000000005 331.46699000000007 50.401C331.3269900000001 49.700700000000005 331.1509900000001 48.687900000000006 330.62799000000007 48.1739C329.7669900000001 47.3271 328.2209900000001 48.668200000000006 327.8849900000001 49.5178C326.7809900000001 52.3143 326.79199000000006 55.4968 327.0599900000001 58.4592C327.2937700000001 61.03909 327.8388300000001 63.64256 328.79786000000007 66.04986C328.7370400000001 66.49873 328.66793000000007 66.9459 328.58999000000006 67.3909C328.48199000000005 68.0104 328.32899000000003 68.711 328.16299000000004 69.2473C328.07499 69.532 327.96999000000005 69.81099999999999 327.85699000000005 70.0864C327.74767 70.35338 327.75084000000004 70.3708 327.72715000000005 70.4098C327.70505 70.40538000000001 327.6829900000001 70.40078 327.66099 70.39620000000001C327.76699 70.418 327.28299000000004 70.1914 327.15099000000004 70.10340000000001C326.20999000000006 69.4791 325.50699000000003 68.10050000000001 324.98899000000006 67.0485C324.50725000000006 66.06997 324.11680000000007 65.04029 323.77814000000006 63.99374C323.75948000000005 62.689170000000004 323.7047400000001 61.38414 323.67399000000006 60.0854C323.60199000000006 57.0806 324.05499000000003 52.9123 322.3219900000001 50.0282C321.7549900000001 49.0853 320.0809900000001 50.5023 319.76299000000006 51.024899999999995C318.32299000000006 53.391299999999994 318.91999000000004 56.881899999999995 319.32999000000007 59.4704C319.6627200000001 61.57293 320.14371000000006 63.69583 320.8241500000001 65.73671999999999C320.8254300000001 66.19006999999999 320.8220100000001 66.64339 320.8119900000001 67.0966C320.7839900000001 68.3484 320.6979900000001 69.6006 320.4919900000001 70.8351C320.4129900000001 71.3092 320.3039900000001 71.77159999999999 320.1399900000001 72.22189999999999C320.13379000000015 72.2392 320.11267000000015 72.28513 320.08644000000015 72.34087C319.88949000000014 72.30121 319.70779000000016 72.19883 319.52899000000014 72.10839999999999C318.98699000000016 71.83099999999999 318.56499000000014 71.36819999999999 318.1789900000001 70.89689999999999C317.49799000000013 70.06629999999998 316.81499000000014 68.83859999999999 316.9839900000001 67.70469999999999C317.10799000000014 66.87159999999999 316.2349900000001 66.826 315.69199000000015 67.03399999999999C314.9789900000001 67.30609999999999 314.15999000000016 68.00309999999999 314.03599000000014 68.8342C313.64599000000015 71.457 316.10499000000016 75.137 318.7989900000001 75.0736C321.23403000000013 75.01661 322.5183800000001 73.01974 323.1513700000001 70.84423C324.3541000000001 72.61082999999999 326.1441900000001 73.93408 328.2579900000001 72.576C329.4071700000001 71.83766999999999 330.16248000000013 70.73335999999999 330.67846000000014 69.48165999999999C332.06679000000014 71.19640999999999 334.06587000000013 72.34161999999999 336.14699000000013 70.95179999999999C336.9961900000001 70.38492 337.6493200000001 69.6116 338.1158100000001 68.72420999999999C338.9151700000001 69.81807999999998 340.21505000000013 70.33901999999999 341.55499000000015 70.00529999999999C342.86153000000013 69.68034999999999 343.7656900000001 68.56018999999999 344.4642000000001 67.35952999999999C344.7976600000001 67.75855999999999 345.1641700000001 68.12602999999999 345.5659900000001 68.455C348.2808700000001 70.67761 350.6451700000001 68.93435 352.3393400000001 66.60657C353.0478400000001 67.91756000000001 354.1022800000001 69.01663 355.62999000000013 68.8806C357.3449900000001 68.7288 358.71299000000016 67.208 359.62899000000016 65.8237C360.88178000000016 63.92926 361.68685000000016 61.707190000000004 362.33878000000016 59.47823C362.91106000000013 60.12055 363.50875000000013 60.7359 364.06999000000013 61.3453C364.10853000000014 61.38714 364.1470200000001 61.429010000000005 364.18548000000015 61.47091C362.29968000000014 62.760090000000005 360.6871600000002 64.44862 359.79199000000017 66.534C359.15214000000014 68.02517 359.27795000000015 69.56291 360.39284000000015 70.64445C354.83046000000013 70.55177 349.26832000000013 70.72858000000001 343.73799000000014 71.25150000000001C336.22299000000015 71.96140000000001 328.53999000000016 73.14460000000001 321.3569900000001 75.637C319.6049900000001 76.2447 317.4469900000001 76.9102 316.0949900000001 78.3038C314.8639900000001 79.57339999999999 316.0999900000001 80.79419999999999 317.3129900000001 81.4463C317.8429900000001 81.731 318.8589900000001 82.24789999999999 319.4579900000001 81.8611C319.98637000000014 81.51974 319.1069500000001 80.84357 318.7571100000001 80.62370999999999C318.74098000000015 80.51826999999999 318.86560000000014 80.18762999999998 319.0279900000001 80.00829999999999C319.7949900000001 79.16269999999999 320.97399000000013 78.67209999999999 321.9799900000001 78.2323C325.9849900000001 76.481 330.3849900000001 75.57069999999999 334.6379900000001 74.75869999999999C347.1639900000001 72.36599999999999 359.8759900000001 72.19439999999999 372.55299000000014 73.04969999999999C379.8059900000001 73.53829999999999 387.04499000000015 74.37869999999998 394.20599000000016 75.67939999999999C396.8899900000002 76.16639999999998 399.5679900000002 76.72039999999998 402.20899000000014 77.42509999999999C403.28999000000016 77.71379999999999 404.3639900000001 78.03319999999998 405.42699000000016 78.39219999999999C406.2509900000002 78.67049999999999 406.6469900000002 78.81419999999999 407.56899000000016 79.25039999999998C407.90999000000016 79.41229999999999 409.1859900000002 79.89889999999998 409.42699000000016 79.30769999999998C409.67199000000016 78.70519999999998 408.43899000000016 78.11679999999998 408.0969900000002 77.95449999999998C404.85499000000016 76.41959999999999 401.2859900000002 75.58529999999998 397.8219900000002 74.80869999999999C392.6689900000002 73.65459999999999 387.4399900000002 72.86029999999998 382.2069900000002 72.2267C377.0305500000002 71.59925 371.8177500000002 71.12101999999999 366.5947900000002 70.85561C368.5681800000002 70.04277 370.2426300000002 68.49332 369.3069900000002 66.0406C368.8975900000002 64.96867 368.3167400000002 63.977329999999995 367.65208000000024 63.04598C367.90987000000024 62.9141 368.16962000000024 62.78944 368.43011000000024 62.67221C368.88130000000024 64.48593 369.6409900000002 66.20528 370.92399000000023 67.5185C372.2759900000002 68.9016 374.21899000000025 69.54690000000001 376.08899000000025 69.1883C376.91079000000025 69.03067 377.6915300000002 68.62373 378.31898000000024 68.04586C378.95014000000026 68.89527000000001 379.82870000000025 69.47341 380.9989900000002 69.572C385.1869900000002 69.92490000000001 387.9559900000002 65.0068 388.15199000000024 61.21810000000001C388.36599000000024 57.089000000000006 383.97099000000026 54.51670000000001 380.5209900000002 56.295100000000005C379.1856000000002 56.983990000000006 378.0671200000002 58.282450000000004 377.5571100000002 59.772290000000005C377.1603600000002 60.82509 376.9526200000002 62.23362 377.0070200000002 63.654360000000004C376.6088300000002 63.75777 376.3298500000002 63.98458 376.3289900000002 64.3518C376.3269900000002 65.21759999999999 376.0519900000002 65.8815 375.5209900000002 66.5385C375.3239900000002 66.7824 375.03199000000023 66.9976 374.7559900000002 67.1313C374.3399900000002 67.33319999999999 374.5449900000002 67.31739999999999 374.2089900000002 67.1305C373.7359900000002 66.8684 373.0319900000002 65.8968 372.6749900000002 65.1691C371.4419900000002 62.6529 371.1959900000002 59.6331 371.1709900000002 56.856C371.1588600000002 55.51787 371.2061700000002 54.164210000000004 371.3117200000002 52.80627C374.2126200000002 52.457229999999996 377.3166500000002 52.95803 379.7479900000002 53.9711C380.71499000000017 54.3738 382.70299000000017 52.2945 381.6509900000002 51.8563C378.5618200000002 50.56928 374.92748000000023 50.16146 371.5141500000002 50.762769999999996C372.1051800000002 45.852309999999996 373.4482600000002 40.95934 375.4869900000002 36.613299999999995C376.1429900000002 35.2144 372.80599000000024 34.3963 372.2729900000002 35.5335C369.9290200000002 40.53001999999999 368.4123600000002 46.167049999999996 367.9239700000002 51.82147C366.8480300000002 52.282399999999996 365.83021000000025 52.866389999999996 364.9009900000002 53.578599999999994C364.5409900000002 53.8548 363.8849900000002 54.63739999999999 364.2649900000002 55.14059999999999C364.65799000000015 55.66069999999999 365.5099900000002 55.139399999999995 365.8709900000002 54.86399999999999C366.46087000000017 54.41170999999999 367.1089200000002 54.03728999999999 367.7982600000002 53.73424999999999C367.7166200000002 55.55110999999999 367.7436300000002 57.36249999999999 367.8859900000002 59.147699999999986C367.8960400000002 59.27393999999999 367.90692000000024 59.400699999999986 367.9187100000002 59.52785999999998C367.1532500000002 59.82260999999998 366.3873500000002 60.173039999999986 365.6439900000002 60.579019999999986C365.6246600000002 60.55728999999999 365.6053300000002 60.53557999999999 365.5860000000002 60.513899999999985C364.7781300000002 59.607869999999984 363.8746600000002 58.72996999999999 363.0641200000002 57.788229999999984C363.64488000000017 56.09037999999998 363.9983900000002 54.32271999999998 363.0880000000002 52.650199999999984ZM387.72 65.3379C387.579 66.6495 387.46200000000005 68.3326 388.19100000000003 69.4916C388.75000000000006 70.38040000000001 390.509 68.8281 390.523 68.1033C390.547 66.824 391.158 65.52730000000001 391.699 64.4119C392.00681000000003 63.77855 392.58854 62.550230000000006 393.33449 62.09029C393.09992 64.09725 393.19505000000004 66.25174 393.83500000000004 68.1376C394.208 69.23920000000001 394.824 70.1931 395.80100000000004 70.7943C396.51708 71.23506 397.34633 71.30648000000001 398.16244000000006 71.21187C399.98467000000005 74.92021000000001 404.1764800000001 75.45851 407.67100000000005 74.00110000000001C408.07000000000005 73.83590000000001 408.458 73.6413 408.84200000000004 73.44220000000001C409.35900000000004 73.17450000000001 410.11100000000005 72.46210000000002 409.98900000000003 71.77480000000001C409.86100000000005 71.04790000000001 408.906 71.38230000000001 408.516 71.58380000000001C406.09373 72.83678 403.30192 72.74304000000001 401.46596 70.63562000000002C404.80594 69.56802000000002 407.73034 66.59108000000002 408.771 63.180700000000016C409.298 61.45480000000001 409.175 59.63310000000001 407.627 58.54160000000002C405.883 57.309500000000014 403.269 58.39420000000002 401.748 59.48770000000002C398.9986 61.46387000000002 397.07697 65.02068000000001 397.40223 68.49515000000002C395.5016 66.96372000000002 395.52502999999996 62.44672000000003 395.875 60.322900000000025C395.93 59.988100000000024 395.722 59.68520000000002 395.385 59.674300000000024C393.17013 59.605420000000024 391.43975 61.454460000000026 390.28776 63.25343000000002C390.48846 61.97956000000002 390.83501 60.727250000000026 391.346 59.553200000000025C391.595 58.98100000000002 391.237 58.54560000000002 390.66 58.644600000000025C389.99100000000004 58.76090000000003 389.353 59.30890000000002 389.076 59.944900000000025C388.33700000000005 61.64130000000002 387.91700000000003 63.49160000000003 387.72 65.33790000000002ZM344.23662 62.45404C343.50922 59.08664 343.88878 55.46764 344.97900000000004 52.2444C345.51433000000003 50.65983 346.34778000000006 48.41357 347.92835 47.63428C347.99162 47.898149999999994 348.02831000000003 48.1682 348.06100000000004 48.438399999999994C348.17300000000006 49.37479999999999 348.153 50.347699999999996 348.002 51.276799999999994C347.54 54.11129999999999 346.481 56.98159999999999 345.446 59.63719999999999C345.07874000000004 60.57784999999999 344.68826 61.53374999999999 344.23662 62.45403999999999ZM400.35093 68.70998C399.61209 66.57623 400.09751 64.08633 401.37600000000003 62.2406C402.189 61.0675 403.449 60.234 404.867 60.4654C406.139 60.673 406.564 62.0876 406.384 63.234C405.956 65.9562 403.257 68.65090000000001 400.58000000000004 68.69330000000001C400.50298000000004 68.69452000000001 400.42655 68.70015000000001 400.35093000000006 68.70998ZM380.43387 65.54149C380.80914 65.70945999999999 381.18453 65.84501999999999 381.539 65.9485C382.22499999999997 66.1492 382.914 65.7385 383.38 65.2248C383.615 64.96600000000001 384.272 63.891400000000004 383.585 63.6911C382.169 63.278 380.818 62.5677 380.078 61.1862C379.85821 60.77545 379.79988999999995 60.17839 379.89979 59.61981C379.93879 59.499700000000004 379.98149 59.38089 380.028 59.263600000000004C380.06925 59.15955 380.09381 59.059610000000006 380.10305 58.965920000000004C380.29604 58.55472 380.6 58.236110000000004 381.013 58.143800000000006C382.173 57.884600000000006 383.479 58.48630000000001 384.334 59.273700000000005C385.319 60.1799 385.626 61.3449 385.522 62.668600000000005C385.37399999999997 64.546 384.262 68.07780000000001 381.805 67.0263C381.1939 66.76486000000001 380.75425 66.19178000000001 380.43387 65.54149000000001ZM366.23726 63.85795C366.47704 64.16655 366.70778 64.48368 366.919 64.8137C367.055 65.0262 367.179 65.2475 367.303 65.4683C367.30063 65.46515 367.49909 65.92394 367.5351 65.96255C367.52578 66.03627999999999 367.51013 66.15071999999999 367.508 66.15729999999999C367.421 66.4092 367.263 66.62969999999999 367.09999999999997 66.8329C366.70199999999994 67.33319999999999 366.046 67.66069999999999 365.49199999999996 67.926C364.34349999999995 68.47474 363.02383999999995 68.75188 361.75498 68.71696C361.97339999999997 68.22091 362.25844 67.75746 362.56 67.313C363.47817 65.95615000000001 364.78526 64.78912 366.23726 63.85795ZM336.765 56.1805C336.722 56.5003 336.64599999999996 56.8136 336.56 57.1238C336.52923 57.23319 336.33587 57.62756 336.39466 57.5587C336.04134999999997 57.98041 336.17971 58.34084 336.738 58.295700000000004C337.373 58.2436 338.13 57.884600000000006 338.554 57.381C339.465 56.2976 339.614 54.398 339.33599999999996 53.048C339.20099999999996 52.3926 336.57899999999995 53.4191 336.76899999999995 54.341C336.89399999999995 54.95 336.84899999999993 55.5691 336.76499999999993 56.1805ZM327.51772 70.7195C327.42494 70.81219999999999 327.30253 70.90993 327.51772 70.7195ZM340.93233 68.46911C341.13885999999997 68.47745 340.92037 68.484 341.032 68.5539C340.99787 68.53267 340.96619 68.50504 340.93233 68.46911ZM319.94189 72.65735C319.89819 72.72340999999999 319.88789 72.71360999999999 319.94189 72.65735ZM327.44646 70.8127C327.41585 70.85082000000001 327.40322 70.86544 327.44646 70.8127ZM367.54842 65.97513C367.57161 66.05757 367.55785000000003 66.02687999999999 367.54842 65.97513ZM367.53768 65.94184C367.53516 65.93077 367.53098 65.91547 367.52491000000003 65.8954C367.52988000000005 65.9117 367.53423000000004 65.92621 367.53802 65.93907C367.53791 65.93998 367.5378 65.9409 367.53768 65.94184ZM327.97864 70.44156C327.99350999999996 70.43858999999999 328.00996 70.43513 328.02814 70.43113C328.01048000000003 70.43503 327.99562000000003 70.43856 327.98324 70.44172999999999C327.98173 70.44166999999999 327.9802 70.44161 327.97864000000004 70.44156ZM318.784 80.71422C318.78643999999997 80.71846 318.7861 80.7186 318.784 80.71422ZM353.55895 61.72883C353.30958999999996 60.55737 353.19601 59.344860000000004 353.258 58.1471C353.31181999999995 57.09425 353.55536 55.96312 353.98168999999996 55.31949C354.02342999999996 55.298770000000005 354.15216999999996 55.21895 354.22499999999997 55.205200000000005C354.61699999999996 55.130100000000006 354.93899999999996 55.6632 355.058 56.012100000000004C355.654 57.76220000000001 354.721 59.8875 353.825 61.327600000000004C353.73992 61.464420000000004 353.65109 61.59805 353.55895 61.72883ZM354.02783 55.26887C354.02900999999997 55.26756 354.0302 55.26622 354.03141 55.26487C354.04259 55.25616 354.05603 55.245400000000004 354.07198999999997 55.2323C354.05494999999996 55.24631 354.04028999999997 55.25844 354.02781999999996 55.26887ZM356.78421 66.6384C356.78436999999997 66.63833000000001 356.78452999999996 66.63826 356.7847 66.63819000000001C356.79168999999996 66.63645000000001 356.79911999999996 66.63459 356.80701 66.63260000000001C356.79895999999997 66.63463000000002 356.79137 66.63656000000002 356.78422 66.6384ZM357.03632 66.45033C357.03686999999996 66.44981999999999 357.03743 66.44931 357.038 66.44879999999999C357.03749 66.44927999999999 357.03693 66.44979 357.03632 66.45033ZM356.88361 66.59285C356.88406999999995 66.59263 356.88453999999996 66.59242 356.885 66.5922C356.88455999999996 66.59241 356.88409 66.59263 356.88361 66.59285ZM356.95617 66.53378C356.95644999999996 66.53358999999999 356.95673 66.53339999999999 356.957 66.5332C356.95673 66.53339 356.95645 66.53358 356.95617 66.53378Z " fill="#ac9455" transform="matrix(1,0,0,1,-313,-34)"></path></svg>